<svg width="18" height="18" viewBox="0 0 18 18" fill="none" xmlns="http://www.w3.org/2000/svg">
<path d="M3.53571 5.78571C3.53571 5.25315 3.96744 4.82143 4.5 4.82143H9C9.53256 4.82143 9.96429 5.25315 9.96429 5.78571C9.96429 6.31827 9.53256 6.75 9 6.75H4.5C3.96744 6.75 3.53571 6.31827 3.53571 5.78571Z" fill="white"/>
<path d="M3.53571 9.64286C3.53571 9.1103 3.96744 8.67857 4.5 8.67857H6.42857C6.96113 8.67857 7.39286 9.1103 7.39286 9.64286C7.39286 10.1754 6.96113 10.6071 6.42857 10.6071H4.5C3.96744 10.6071 3.53571 10.1754 3.53571 9.64286Z" fill="white"/>
<path d="M10.7525 7.95325C10.7193 7.58886 10.7957 7.2323 10.9729 6.9254L13.9668 1.73987C14.4071 0.977236 15.4495 0.754744 16.295 1.24292C17.1406 1.7311 17.4691 2.74509 17.0288 3.50773L14.0349 8.69326C13.8577 9.00015 13.5872 9.24466 13.255 9.39807L11.568 10.1772C11.2941 10.3037 10.9486 10.1042 10.9212 9.80382L10.7525 7.95325Z" fill="white"/>
<path fill-rule="evenodd" clip-rule="evenodd" d="M0 3.53888C0 1.76193 1.43758 0 3.21092 0H11.177C11.7095 0 12.1412 0.432603 12.1412 0.966245C12.1412 1.49989 11.7095 1.93249 11.177 1.93249H3.21092C2.5027 1.93249 1.92857 2.82921 1.92857 3.53888V15.3255L4.51429 13.147C4.71697 12.9763 4.97329 12.8826 5.23812 12.8826H14.7891C15.4973 12.8826 16.0714 12.2748 16.0714 11.5651V8.63471C16.0714 8.10107 16.5032 7.66846 17.0357 7.66846C17.5683 7.66846 18 8.10107 18 8.63471V11.5651C18 13.342 16.5624 14.8151 14.7891 14.8151H5.53114L2.11234 17.6954C1.27627 18.3998 0 17.8042 0 16.7097L0 3.53888Z" fill="white"/>
</svg>
