<svg width="18" height="18" viewBox="0 0 18 18" fill="none" xmlns="http://www.w3.org/2000/svg">
<path fill-rule="evenodd" clip-rule="evenodd" d="M0 1.40625C0 0.629578 0.629578 0 1.40625 0H16.5938C17.3704 0 18 0.629578 18 1.40625V2.59375C18 3.37042 17.3704 4 16.5938 4H1.40625C0.629578 4 0 3.37042 0 2.59375V1.40625ZM0 8.40625C0 7.62958 0.629578 7 1.40625 7H16.5938C17.3704 7 18 7.62958 18 8.40625V9.59375C18 10.3704 17.3704 11 16.5938 11H1.40625C0.629578 11 0 10.3704 0 9.59375V8.40625ZM1.40625 14C0.629578 14 0 14.6296 0 15.4062V16.5938C0 17.3704 0.629578 18 1.40625 18H16.5938C17.3704 18 18 17.3704 18 16.5938V15.4062C18 14.6296 17.3704 14 16.5938 14H1.40625Z" fill="#D9D9D9"/>
</svg>
