<svg width="18" height="18" viewBox="0 0 18 18" fill="none" xmlns="http://www.w3.org/2000/svg">
<path d="M4.1802 6.93437C4.56047 6.5541 5.17701 6.5541 5.55728 6.93437C5.93755 7.31464 5.93755 7.93118 5.55728 8.31146L2.80311 11.0656C1.66229 12.2064 1.66229 14.0561 2.80311 15.1969C3.94392 16.3377 5.79355 16.3377 6.93437 15.1969L9.68854 12.4427C10.0688 12.0624 10.6854 12.0624 11.0656 12.4427C11.4459 12.823 11.4459 13.4395 11.0656 13.8198L8.31146 16.574C6.4101 18.4753 3.32738 18.4753 1.42602 16.574C-0.47534 14.6726 -0.47534 11.5899 1.42602 9.68854L4.1802 6.93437Z" fill="white"/>
<path d="M12.4427 9.68854C12.0624 10.0688 12.0624 10.6854 12.4427 11.0656C12.823 11.4459 13.4395 11.4459 13.8198 11.0656L16.574 8.31146C18.4753 6.4101 18.4753 3.32738 16.574 1.42602C14.6726 -0.475341 11.5899 -0.47534 9.68854 1.42602L6.93437 4.18019C6.5541 4.56047 6.5541 5.17701 6.93437 5.55728C7.31464 5.93755 7.93119 5.93755 8.31146 5.55728L11.0656 2.80311C12.2064 1.66229 14.0561 1.66229 15.1969 2.80311C16.3377 3.94392 16.3377 5.79355 15.1969 6.93437L12.4427 9.68854Z" fill="white"/>
<path d="M5.65565 10.9673C5.27537 11.3475 5.27537 11.9641 5.65565 12.3444C6.03592 12.7246 6.65246 12.7246 7.03273 12.3444L12.3444 7.03273C12.7246 6.65246 12.7246 6.03592 12.3444 5.65565C11.9641 5.27537 11.3475 5.27537 10.9673 5.65565L5.65565 10.9673Z" fill="white"/>
</svg>
