<svg width="18" height="18" viewBox="0 0 18 18" fill="none" xmlns="http://www.w3.org/2000/svg">
<path d="M4.5 6C5.32843 6 6 5.32843 6 4.5C6 3.67157 5.32843 3 4.5 3C3.67157 3 3 3.67157 3 4.5C3 5.32843 3.67157 6 4.5 6Z" fill="white"/>
<path fill-rule="evenodd" clip-rule="evenodd" d="M2 0C0.895431 0 0 0.89543 0 2V16C0 17.1046 0.89543 18 2 18H16C17.1046 18 18 17.1046 18 16V2C18 0.895431 17.1046 0 16 0H2ZM2.56525 2.03773C2.01296 2.03773 1.56525 2.48545 1.56525 3.03773V13.0414L4.45415 9.17296C4.84238 8.65309 5.61542 8.6346 6.02773 9.13559L7.1739 10.5283L10.8188 5.64353C11.2152 5.11223 12.0095 5.10669 12.4133 5.63241L16.4348 10.868V3.03773C16.4348 2.48545 15.9871 2.03773 15.4348 2.03773H2.56525Z" fill="white"/>
</svg>
