<svg width="18" height="15" viewBox="0 0 18 15" fill="none" xmlns="http://www.w3.org/2000/svg">
<path d="M3.81176 6.2038V8.73991C3.81176 10.8729 14.1882 10.8729 14.1882 8.73991V6.2038L9.17547 7.96718C9.06204 8.00708 8.93796 8.00709 8.82453 7.96718L3.81176 6.2038Z" fill="white"/>
<path d="M15.6706 5.71285V9.64837C15.2908 9.85989 15.0353 10.2552 15.0353 10.708C15.0353 11.1608 15.2908 11.5562 15.6706 11.7677V14.1741C15.6706 14.5119 15.955 14.7857 16.3059 14.7857C16.6567 14.7857 16.9412 14.5119 16.9412 14.1741V11.7677C17.321 11.5562 17.5765 11.1608 17.5765 10.708C17.5765 10.2552 17.321 9.85989 16.9412 9.64837V5.27323L15.6706 5.71285Z" fill="white"/>
<path d="M0.345425 3.99934C-0.115142 3.8363 -0.115142 3.19467 0.345425 3.03163L8.82348 0.0302969C8.93759 -0.0100989 9.06241 -0.010099 9.17652 0.0302967L17.6546 3.03163C18.1151 3.19467 18.1151 3.8363 17.6546 3.99934L9.17652 7.00067C9.06241 7.04107 8.93759 7.04107 8.82348 7.00067L0.345425 3.99934Z" fill="white"/>
</svg>
