<svg width="18" height="18" viewBox="0 0 18 18" fill="none" xmlns="http://www.w3.org/2000/svg">
<path d="M12.0682 3.06818C12.0682 4.76269 10.6945 6.13636 9 6.13636C7.30549 6.13636 5.93182 4.76269 5.93182 3.06818C5.93182 1.37367 7.30549 0 9 0C10.6945 0 12.0682 1.37367 12.0682 3.06818Z" fill="white"/>
<path d="M4.90909 9.81818C4.90909 8.46257 6.00803 7.36364 7.36364 7.36364H10.6364C11.992 7.36364 13.0909 8.46257 13.0909 9.81818V17.1818C13.0909 17.6337 12.7246 18 12.2727 18H5.72727C5.2754 18 4.90909 17.6337 4.90909 17.1818V9.81818Z" fill="white"/>
<path d="M3.27273 8.59091C4.62834 8.59091 5.72727 7.49198 5.72727 6.13636C5.72727 4.78075 4.62834 3.68182 3.27273 3.68182C1.91711 3.68182 0.818182 4.78075 0.818182 6.13636C0.818182 7.49198 1.91711 8.59091 3.27273 8.59091Z" fill="white"/>
<path d="M4.09091 10.2273C4.09091 9.94182 4.13964 9.66774 4.22922 9.41292C4.18344 9.41038 4.13733 9.40909 4.09091 9.40909H2.45455C1.09893 9.40909 0 10.508 0 11.8636V17.1818C0 17.6337 0.366307 18 0.818182 18H4.5C4.27407 18 4.09091 17.8168 4.09091 17.5909V10.2273Z" fill="white"/>
<path d="M14.7273 8.59091C16.0829 8.59091 17.1818 7.49198 17.1818 6.13636C17.1818 4.78075 16.0829 3.68182 14.7273 3.68182C13.3717 3.68182 12.2727 4.78075 12.2727 6.13636C12.2727 7.49198 13.3717 8.59091 14.7273 8.59091Z" fill="white"/>
<path d="M17.1818 18H13.5C13.7259 18 13.9091 17.8168 13.9091 17.5909V10.2273C13.9091 9.94182 13.8604 9.66774 13.7708 9.41292C13.8002 9.41129 13.8297 9.41018 13.8594 9.40958C13.8759 9.40925 13.8925 9.40909 13.9091 9.40909H15.5455C16.9011 9.40909 18 10.508 18 11.8636V17.1818C18 17.6337 17.6337 18 17.1818 18Z" fill="white"/>
</svg>
