<svg width="18" height="18" viewBox="0 0 18 18" fill="none" xmlns="http://www.w3.org/2000/svg">
<path d="M0 1.40625C0 0.6296 0.6296 6.02398e-07 1.40625 6.02398e-07H6.89062C7.66728 6.02398e-07 8.29688 0.6296 8.29688 1.40625V4.5C8.29688 5.27665 7.66728 5.90625 6.89062 5.90625H1.40625C0.6296 5.90625 0 5.27665 0 4.5V1.40625Z" fill="white"/>
<path d="M18 16.5938C18 17.3704 17.3704 18 16.5938 18H11.1094C10.3327 18 9.70312 17.3704 9.70312 16.5938V13.5C9.70313 12.7233 10.3327 12.0937 11.1094 12.0938H16.5938C17.3704 12.0938 18 12.7234 18 13.5V16.5938Z" fill="white"/>
<path d="M0 8.71875C0 7.9421 0.6296 7.3125 1.40625 7.3125H6.89062C7.66728 7.3125 8.29688 7.9421 8.29688 8.71875V16.5938C8.29688 17.3704 7.66728 18 6.89062 18H1.40625C0.6296 18 0 17.3704 0 16.5938V8.71875Z" fill="white"/>
<path d="M18 9.28125C18 10.0579 17.3704 10.6875 16.5938 10.6875H11.1094C10.3327 10.6875 9.70312 10.0579 9.70312 9.28125L9.70313 1.40625C9.70313 0.629599 10.3327 -6.78969e-08 11.1094 0L16.5938 4.79459e-07C17.3704 5.47356e-07 18 0.6296 18 1.40625V9.28125Z" fill="white"/>
</svg>
