<?xml version="1.0" encoding="UTF-8"?><svg id="Camada_2" xmlns="http://www.w3.org/2000/svg" viewBox="0 0 17.87 17.87"><defs><style>.cls-1{fill:#555;}</style></defs><g id="Camada_1-2"><path class="cls-1" d="M16.14,16.32c-3.04,3.66-9.25,.01-12.03-2.56C1.53,10.98-2.11,4.77,1.55,1.73,4.77-.68,7.12,6.09,4.32,7.65c.78,2.88,3.03,5.13,5.9,5.91,1.56-2.81,8.34-.45,5.92,2.77Zm-6.08-7.4h1.12c0-1.23-1-2.23-2.23-2.23v1.12c.61,0,1.12,.5,1.12,1.12Zm4.46,0c0-3.08-2.5-5.58-5.58-5.58v1.12c2.46,0,4.46,2,4.46,4.46h1.12ZM8.94,0V1.12c4.31,0,7.81,3.5,7.81,7.81h1.12c0-4.93-4-8.92-8.92-8.92Z"/></g></svg>