<?xml version="1.0" encoding="UTF-8"?><svg id="Camada_2" xmlns="http://www.w3.org/2000/svg" viewBox="0 0 17.92 17.92"><defs><style>.cls-1{fill:#00aef3;fill-rule:evenodd;}.cls-2{fill:none;}</style></defs><g id="Camada_1-2"><g id="__stroke"><g id="Skype"><rect class="cls-2" x=".04" y=".03" width="17.85" height="17.85"/><path id="Skype-2" class="cls-1" d="M13.42,13.06C8.04,18.77,.12,9.73,6.03,10.58c.72,2.27,4.43,3.59,5.28,.85-.73-2.46-5.18-1.22-6.49-3.38C2.15,3.65,9.63,1.82,12.39,4.1c1.72,.89,1.17,3.89-.86,2.82-.77-1.52-2.49-2.58-4.17-1.56-2.82,3.28,9.88,1.25,6.06,7.71Zm3.95-2.21C18.75,5.14,13.4-.32,7.6,.78,3.47-1.98-1.97,3.13,.72,7.37c-1.29,5.73,4.13,11.11,9.9,9.94,4.01,2.3,8.97-2.35,6.76-6.45Z"/></g></g></g></svg>